# xmcd
#
# Track frame offsets:
#	150
#	12978
#	29898
#	45972
#	67158
#	88491
#	106982
#	125002
#	138257
#	154953
#	169256
#	179677
#	196624
#
# Disc length: 2917 seconds
#
# Revision: 0
# Processed by: cddbd v1.4PL0 Copyright (c) Steve Scherf et al.
# Submitted via: dBpowerAMP V4.0
#
DISCID=bd0b630d
DTITLE=monsieur - le chêne blanc
DYEAR=1900
DGENRE=
TTITLE0=du plaisir à pleurer
TTITLE1=chaud devant
TTITLE2=les extrèmes
TTITLE3=amouramor
TTITLE4=a quoi ca tient
TTITLE5=tout ce que je t'ai dit
TTITLE6=parce que on est seul
TTITLE7=reste encore avec moi
TTITLE8=j'aurai ta peau contre ma peau
TTITLE9=j'crois qu'je vais craquer
TTITLE10=maman va rev'nir
TTITLE11=nomades ici
TTITLE12=il est comme moi
EXTD=
EXTT0=
EXTT1=
EXTT2=
EXTT3=
EXTT4=
EXTT5=
EXTT6=
EXTT7=
EXTT8=
EXTT9=
EXTT10=
EXTT11=
EXTT12=
PLAYORDER=
